<svg width="126" height="18" viewBox="0 0 126 18" xmlns="http://www.w3.org/2000/svg"><title>Group Copy 5</title><g fill="#B1986A" fill-rule="evenodd"><path d="M.227.376h124.826v17.538H.227V.376z" opacity=".062"/><path d="M15.08 11.362l.216.042-.776 2.492H7.535v-.25h.34c.38 0 .654-.124.817-.373.095-.152.136-.47.136-.997v-5.94c0-.567-.068-.927-.19-1.08-.164-.194-.423-.29-.763-.29h-.34v-.25h4.085v.25c-.477 0-.817.04-1.008.138-.19.083-.327.208-.395.346-.068.14-.11.485-.11 1.025v5.787c0 .374.042.637.11.776.055.097.136.166.245.208.11.04.463.07 1.035.07h.667c.695 0 1.172-.057 1.457-.154.274-.11.533-.29.764-.553.232-.264.463-.68.695-1.248zm6.74-.526h-3.5l-.6 1.44c-.15.36-.23.623-.23.79 0 .152.067.263.203.373.123.11.41.18.844.207v.25H15.69v-.25c.383-.07.628-.152.737-.263.218-.222.476-.65.75-1.315l3.17-7.56h.233l3.132 7.642c.26.61.477 1.01.694 1.19.205.18.49.277.858.305v.25H21.71v-.25c.354-.014.6-.083.722-.18.122-.11.19-.235.19-.388 0-.194-.095-.513-.272-.942l-.53-1.302zm-.205-.498l-1.512-3.71-1.566 3.71h3.078zM37.574 4.716v.25c-.326.055-.57.166-.735.318-.232.222-.437.554-.627 1.01l-3.132 7.81h-.244L29.46 6.198c-.164-.402-.287-.665-.355-.748-.123-.138-.26-.25-.41-.332-.162-.083-.38-.125-.666-.152v-.25h3.69v.25c-.423.04-.695.11-.818.22-.122.098-.177.236-.177.39 0 .234.096.58.3 1.065l2.3 5.373 2.125-5.317c.204-.512.313-.872.313-1.08 0-.138-.068-.263-.19-.374-.136-.124-.354-.207-.654-.263-.028 0-.055 0-.11-.014v-.25h2.764M42.382 10.836h-3.5l-.6 1.44c-.15.36-.23.623-.23.79 0 .152.068.263.204.373.122.11.408.18.844.207v.25h-2.846v-.25c.38-.07.626-.152.735-.263.217-.222.476-.65.748-1.315l3.173-7.56h.233l3.132 7.642c.258.61.476 1.01.694 1.19.203.18.49.277.857.305v.25h-3.554v-.25c.354-.014.6-.083.722-.18.122-.11.19-.235.19-.388 0-.194-.095-.513-.272-.942l-.53-1.302zm-.204-.498l-1.512-3.71-1.566 3.71h3.078zM45.8 4.716h2.424l5.528 6.896V6.31c0-.57-.068-.915-.19-1.054-.164-.194-.423-.29-.79-.29h-.314v-.25h3.173v.25h-.326c-.38 0-.653.11-.817.346-.095.152-.15.484-.15.997v7.74h-.245l-5.936-7.395v5.65c0 .567.054.913.177 1.05.177.195.435.292.79.292h.326v.25h-3.174v-.25h.314c.395 0 .667-.11.83-.346.096-.15.15-.484.15-.996V5.92c-.26-.318-.463-.51-.6-.622-.135-.097-.326-.18-.585-.277-.136-.04-.326-.054-.585-.054v-.25zm18.356-.207l.23 2.892h-.244c-.23-.72-.53-1.26-.912-1.62-.53-.526-1.212-.79-2.057-.79-1.143 0-2.015.458-2.614 1.386-.505.775-.75 1.703-.75 2.783 0 .873.163 1.676.504 2.396.327.72.762 1.246 1.307 1.593.532.33 1.09.497 1.65.497.34 0 .652-.04.966-.125.313-.096.612-.22.898-.387v-2.66c0-.456-.04-.76-.11-.9-.067-.15-.162-.262-.312-.33-.15-.07-.395-.112-.762-.112v-.25h3.486v.25h-.164c-.34 0-.585.11-.708.346-.095.18-.136.498-.136.996v2.81c-.504.278-1.008.486-1.512.624-.49.125-1.048.194-1.647.194-1.744 0-3.065-.568-3.964-1.703-.68-.858-1.02-1.84-1.02-2.948 0-.817.19-1.58.57-2.326.45-.873 1.076-1.55 1.866-2.022.654-.402 1.43-.595 2.33-.595.326 0 .625.026.898.082.272.055.64.166 1.143.36.246.097.41.138.49.138.082 0 .164-.04.22-.124.053-.07.094-.222.108-.457h.246zm7.993.456v-.25h3.17v.25h-.34c-.353 0-.625.152-.816.456-.095.14-.136.457-.136.97v3.724c0 .914-.096 1.634-.273 2.133-.177.51-.53.94-1.048 1.314-.53.36-1.24.54-2.15.54-.982 0-1.73-.18-2.234-.526-.504-.346-.872-.803-1.076-1.4-.15-.4-.218-1.148-.218-2.256V6.336c0-.567-.083-.927-.233-1.107-.15-.18-.395-.264-.735-.264h-.34v-.25h3.894v.25h-.34c-.382 0-.64.124-.804.36-.11.166-.163.498-.163 1.01v4.002c0 .36.026.76.094 1.218.068.47.177.817.354 1.08.164.263.41.47.722.637.313.166.708.25 1.17.25.587 0 1.117-.125 1.58-.388.463-.263.79-.596.953-1.01.178-.403.26-1.095.26-2.078v-3.71c0-.568-.07-.928-.19-1.08-.165-.195-.424-.29-.764-.29h-.34zm9.558 5.87h-3.5l-.6 1.44c-.15.36-.23.623-.23.79 0 .152.068.263.204.373.122.11.408.18.844.207v.25H75.58v-.25c.382-.07.627-.152.736-.263.217-.222.476-.65.748-1.315l3.173-7.56h.232l3.13 7.642c.26.61.477 1.01.695 1.19.205.18.49.277.858.305v.25H81.6v-.25c.353-.014.598-.083.72-.18.123-.11.19-.235.19-.388 0-.194-.094-.513-.27-.942l-.532-1.302zm-.204-.498l-1.512-3.71-1.566 3.71h3.078zm13.004 3.558h-2.41l-3.064-4.292c-.23.014-.408.014-.545.014h-.178c-.068 0-.136-.014-.204-.014v2.672c0 .582.068.928.19 1.08.164.194.41.29.75.29h.354v.25h-3.868v-.25h.34c.382 0 .655-.124.818-.373.095-.138.136-.47.136-.997v-5.94c0-.58-.068-.927-.19-1.08-.164-.194-.423-.29-.763-.29h-.34v-.25h3.28c.968 0 1.676.07 2.126.208.45.152.845.415 1.158.79.313.387.476.844.476 1.37 0 .554-.177 1.052-.544 1.468-.354.415-.926.706-1.675.872l1.866 2.63c.422.61.79 1.012 1.09 1.22.313.193.708.318 1.198.373v.25zm-6.4-4.72h.368c.858 0 1.498-.18 1.92-.57.436-.373.654-.857.654-1.44 0-.58-.178-1.037-.518-1.397-.354-.36-.817-.54-1.39-.54-.258 0-.598.04-1.034.123v3.822zm6.51 4.72v-.25h.34c.38 0 .653-.124.803-.373.096-.152.15-.484.15-.997v-5.94c0-.567-.067-.927-.19-1.08-.163-.194-.422-.29-.762-.29h-.34v-.25h3.676c1.334 0 2.37.153 3.063.47.71.306 1.267.832 1.703 1.552.422.734.64 1.564.64 2.52 0 1.274-.382 2.34-1.144 3.198-.858.956-2.165 1.44-3.908 1.44h-4.03zm2.573-.678c.56.124 1.036.194 1.417.194 1.02 0 1.88-.374 2.546-1.108.68-.734 1.02-1.73 1.02-2.99 0-1.26-.34-2.258-1.02-2.992-.667-.733-1.54-1.093-2.6-1.093-.395 0-.858.068-1.362.192v7.796zm11.235.43v.248h-3.867v-.25h.326c.368 0 .64-.11.804-.33.11-.14.163-.486.163-1.04v-5.94c0-.457-.026-.775-.08-.914-.055-.11-.137-.207-.273-.29-.204-.11-.408-.166-.613-.166h-.326v-.25h3.867v.25h-.327c-.368 0-.626.11-.803.332-.11.138-.164.484-.164 1.038v5.94c0 .457.028.776.083.914.054.11.136.208.286.29.19.112.394.167.598.167h.327zm6.563-2.812h-3.5l-.598 1.44c-.15.36-.232.623-.232.79 0 .152.068.263.204.373.123.11.41.18.845.207v.25h-2.846v-.25c.382-.07.627-.152.736-.263.218-.222.477-.65.75-1.315l3.172-7.56h.23l3.133 7.642c.26.61.477 1.01.695 1.19.205.18.49.277.858.305v.25h-3.554v-.25c.354-.014.6-.083.72-.18.124-.11.192-.235.192-.388 0-.194-.095-.513-.272-.942l-.532-1.302zm-.204-.498l-1.51-3.71-1.567 3.71h3.077z"/></g></svg>