<svg width="25" height="42" viewBox="0 0 25 42" xmlns="http://www.w3.org/2000/svg"><title>Group Copy 7</title><g fill="#B1986A" fill-rule="evenodd"><path d="M24.645.007h.102c-.006 1.672-.003 3.343-.01 5.015-5.774 2.41-11.538 4.85-17.3 7.295-1.987-.823-3.963-1.67-5.944-2.506C9.2 6.52 16.94 3.303 24.645.008zM9.016 13.334c5.223-2.204 10.488-4.323 15.73-6.488-.002 1.67.003 3.337-.01 5.007-2.798 1.085-5.566 2.25-8.337 3.396-.687.25-1.427.755-2.15.31-1.743-.744-3.548-1.362-5.234-2.226zM.125 10.95c8.182 3.57 16.405 7.048 24.622 10.537v5.193C16.544 23.15 8.305 19.702.125 16.122V10.95zM3.545 19.157c7.068 3.04 14.13 6.095 21.202 9.13v5.232c-7.06-3.064-14.134-6.098-21.202-9.144v-5.22zM6.283 30.402c1.395-.522 2.704-1.25 4.138-1.67 2.094.67 4.108 1.572 6.12 2.44-3.41 1.483-6.836 2.937-10.26 4.4.006-1.724.003-3.447.003-5.17z" id="Shape"/><path d="M16.848 31.836c.56-.235 1.19-.553 1.793-.233 1.825.72 3.633 1.485 5.423 2.28-5.887 2.643-11.812 5.212-17.705 7.844h-.06c.037-1.712-.07-3.427.02-5.14.336-.246.723-.413 1.1-.586 3.153-1.368 6.297-2.753 9.43-4.164z"/></g></svg>