<svg width="49" height="25" viewBox="0 0 49 25" xmlns="http://www.w3.org/2000/svg"><title>Fill 1 Copy 2</title><path d="M4.174 18.54c0 1.047-.637 1.523-2.008 1.523-1.403 0-2.04-.508-2.04-1.524V6.03c0-1.11.542-1.588 1.752-1.588 1.117 0 1.5.254 1.755 1.207.063.19.16.286.254.286.096 0 .16-.03.383-.254.797-.76 2.137-1.238 3.508-1.238.83 0 1.244.445 1.244 1.302 0 2-.383 2.73-1.37 2.73-2.425 0-3.573 1.3-3.478 3.937v6.126zM10.52 1.586C10.52.507 11.16 0 12.53 0c1.402 0 2.04.508 2.04 1.587v2.286c0 .476.16.635.638.635h1.084c1.084 0 1.594.603 1.594 1.905 0 1.27-.51 1.873-1.594 1.873h-1.084c-.447 0-.638.19-.638.635v4.762c0 2.16.7 3.206 2.137 3.206.35 0 .7-.03 1.657-.126.096-.032.192-.032.32-.032.7 0 1.02.35 1.02 1.174 0 1.556-1.372 2.413-3.795 2.413-3.573 0-5.39-2.317-5.39-6.857V1.587zm18.016 5.11c.638-1.84 1.117-2.284 2.423-2.284 1.21 0 1.85.476 1.85 1.365 0 .222-.033.317-.16.698l-4.24 11.397c-.64 1.746-1.15 2.19-2.425 2.19s-1.786-.444-2.423-2.19l-4.24-11.397c-.128-.317-.16-.476-.16-.698 0-.89.637-1.365 1.848-1.365 1.308 0 1.755.444 2.392 2.285l2.137 6.127c.095.254.222.38.445.38.19 0 .35-.126.415-.38l2.136-6.127zm8.897 8.953c-.383 0-.542.16-.542.477 0 3.142 2.074 5.08 5.486 5.08 1.212 0 2.04-.192 3.54-.794.51-.19.733-.255.956-.255.542 0 .925.477.925 1.207 0 1.905-2.615 3.365-6.09 3.365-5.677 0-8.865-3.62-8.865-10.064 0-6.38 3.06-10.222 8.13-10.222 4.337 0 7.24 3.238 7.24 8.064 0 2.413-.64 3.142-2.775 3.142h-8.004zm6.377-3.205c.383 0 .51-.16.51-.572 0-2.92-1.275-4.508-3.57-4.508-2.264 0-3.795 1.905-3.795 4.635 0 .286.19.445.51.445h6.345z" fill="#B1986A" fill-rule="evenodd"/></svg>