<svg width="45" height="45" viewBox="0 0 45 45" xmlns="http://www.w3.org/2000/svg"><title>Imported Layers Copy</title><g fill="#B1986A" fill-rule="evenodd"><path d="M22.5 44.224c12.428 0 22.5-9.9 22.5-22.11C45 9.9 34.928 0 22.5 0 10.074 0 0 9.9 0 22.113c0 12.21 10.074 22.11 22.5 22.11" fill-opacity=".23"/><path d="M13.966 34.914h1.55V10.086h-1.55v24.828z"/><path d="M13.966 34.914h1.55V10.086h-1.55v24.828zM7.543 19.558c.027-1.664 2.754-1.712 2.754-.077l.026 1.417h2.082v-1.31c.13-4.376-7.027-4.373-6.974-.106v7.537c-.052 4.267 7.113 4.377 6.982 0v-1.58h-2.115v1.69c0 1.637-2.724 1.664-2.75 0v-7.646l-.004.078M20.08 17.774s.367-.58 1.325-1.153c1.218-.728 2.41 0 2.234-.085.957.46 1.322 1.565 1.39 2.803v9.23h1.35v1.69h-3.472V19.23c0-1.605-2.518-1.554-2.543.078l.002-.078v11.03h-3.112v-1.695l.983.003V18.232l-1.17-.007v-1.69h3.007l.006 1.24M35.69 27.38c.06 1.167.37 2.21 1.18 2.643-.154-.082.4.246.964.235.294-.005 1.735-.002 1.735-.002v-1.6s-.73-.01-1.114-.007c-.49.006-.913-.273-.948-1.098l.003-8.63-.002-.015h1.74V17.34h-1.743l.006-.026v-3.348h-1.82V27.38M32.02 25.438v1.69c0 1.636-2.723 1.663-2.75 0v-3.52l4.472.006c.214 0 .39-.182.39-.406l-.003-3.62c.13-4.377-7.028-4.374-6.975-.107v7.537c-.053 4.267 7.112 4.377 6.98 0v-1.58H32.02zm-2.75-5.968c.034-1.64 2.75-1.624 2.75.01l-.008 2.467h-2.74V19.47z"/></g></svg>