<svg width="60" height="18" viewBox="0 0 60 18" xmlns="http://www.w3.org/2000/svg"><title>Fill 2 Copy 4</title><path d="M50.89 2.782c.224 0 .433.057.616.157.402.218.675.647.675 1.14v3.683h3.55c.712 0 1.29.58 1.29 1.296 0 .715-.578 1.296-1.29 1.296h-3.55v3.495c0 .717-.577 1.298-1.29 1.298l-9.88-.004c-.714 0-1.29-.58-1.29-1.297V9h.002c.03-.688.594-1.237 1.287-1.237h8.59V5.376h-9.916l-4.707 8.776c-.075.39-.324.738-.706.923-.18.087-.37.128-.556.128-.448 0-.878-.236-1.115-.644-.05-.074-.09-.15-.12-.23L28.76 6.996l-3.76 7.17c-.163.383-.4.723-.783.908-.18.087-.37.128-.558.128-.448 0-.878-.236-1.115-.643-.048-.074-.088-.15-.12-.23l-4.54-8.954h-7.58v2.387h6.13c.712 0 1.29.58 1.29 1.296 0 .715-.578 1.296-1.29 1.296h-6.13v3.566c0 .716-.577 1.296-1.29 1.296-.712 0-1.29-.58-1.29-1.296v-3.566H4.18c-.713 0-1.29-.58-1.29-1.297s.577-1.297 1.29-1.297h3.547V4.08c0-.493.273-.922.676-1.14.182-.1.392-.158.615-.158h9.618c.21 0 .406.052.58.14.27.12.5.334.64.623l3.803 7.504 3.815-7.168c.192-.392.298-.745.71-.944.18-.087.37-.128.558-.128.32 0 .63.12.867.336.236.184.344.31.506.623l3.595 7.28 4.037-7.526c.105-.185.25-.334.415-.443.223-.185.51-.298.824-.298H50.89zm-8.65 9.77h7.36v-2.196h-7.36v2.195zM50.89.13H38.987c-.865 0-1.708.29-2.393.817-.465.332-.858.767-1.14 1.265l-.015.027-1.66 3.096s-1.913-3.76-2.467-4.22c-.714-.62-1.622-.96-2.567-.96-.585 0-1.173.136-1.7.392-1.026.495-1.592 1.402-2.075 2.47l-1.243 2.318-1.51-2.976C21.82 1.553 21.16.905 20.35.526 19.816.266 19.225.13 18.636.13H9.018c-.654 0-1.302.166-1.875.478-1.267.692-2.055 2.022-2.055 3.47V5.11h-.91C2.014 5.11.25 6.882.25 9.06c0 2.176 1.763 3.948 3.93 3.948h.908v.914c0 2.177 1.763 3.948 3.93 3.948 2.166 0 3.93-1.77 3.93-3.948v-.914h3.488c.756 0 1.462-.215 2.06-.588l1.54 3.035c.077.173.167.342.268.503.71 1.172 1.99 1.897 3.358 1.897.584 0 1.172-.135 1.7-.39.96-.463 1.792-1.245 2.217-2.247l1.116-2.508 1.393 2.746c.075.172.164.34.265.5.71 1.173 1.99 1.9 3.36 1.9.583 0 1.172-.136 1.7-.39.898-.435 1.596-1.204 1.956-2.126.588 1.44 1.998 2.456 3.64 2.456l9.88.003c2.167 0 3.93-1.7 3.93-3.878v-.914h.91c2.166 0 3.928-1.772 3.928-3.95 0-2.176-1.762-3.948-3.93-3.948h-.908V4.08c0-1.45-.787-2.78-2.055-3.472C52.192.296 51.545.13 50.89.13z" fill="#B1986A" fill-rule="evenodd"/></svg>