<svg width="100" height="14" viewBox="0 0 100 14" xmlns="http://www.w3.org/2000/svg"><title>Group Copy 4</title><g fill="#B1986A" fill-rule="evenodd"><path d="M29.48 13v-2.655h-4.842c1.006 1.533 2.802 2.537 4.84 2.654M35.104 10.345h-4.842c-.018.036 0 2.654 0 2.654 2.02-.108 3.81-1.15 4.842-2.655M30.262.65V3.26c-.018.006 4.842 0 4.842 0C34.06 1.794 32.3.765 30.262.65M24.638 3.262h4.84c-.018.006 0-2.613 0-2.613-2.056.145-3.81 1.13-4.84 2.612M29.48 9.696v-2.48c-.02.026-5.785 0-5.785 0 .015.88.23 1.715.523 2.48-.037.043 5.26 0 5.26 0M36.046 7.215h-5.784c-.018.027 0 2.48 0 2.48-.018.044 5.26 0 5.26 0 .262-.747.477-1.6.524-2.48M30.262 3.893V6.43c-.018.027 5.784 0 5.784 0-.053-.845-.23-1.754-.523-2.537 0 .01-5.26 0-5.26 0M23.695 6.43h5.784c-.02.027 0-2.537 0-2.537-.02.01-5.262 0-5.262 0-.298.82-.476 1.64-.523 2.538M.84 12.854v-.5h.968l.27-.052c.357-.078.554-.257.59-.536v-9.85c-.036-.28-.23-.458-.58-.536l-.252-.05H.84V.827H11.7l.266 3.59h-.62l-.054-.6c-.142-.69-.44-1.22-.896-1.587-.455-.366-.89-.608-1.304-.725-.414-.117-.964-.176-1.65-.176H6.118c-.202 0-.344.038-.427.116-.083.077-.124.216-.124.416V6.09h.426c1.613 0 2.485-.658 2.617-1.972V3.7h.72v5.28h-.738l.018-.47c0-1.28-.882-1.92-2.644-1.92h-.4v5.093c0 .446.218.67.656.67H7.46c1.1 0 1.98-.23 2.643-.693.663-.463 1.047-.94 1.154-1.437.106-.495.168-.793.186-.893.018-.1.027-.223.027-.368h.603l-.32 3.892H.84"/><path d="M11.925 1.38V.827h5.93v.55h-.887l-.247.05c-.316.08-.49.258-.524.536v9.687c0 .47.213.703.64.703h1.072c.843 0 1.55-.3 2.12-.902.57-.6.97-1.52 1.2-2.755l.082-.55h.575l-.247 4.71h-9.713v-.502h.897l.248-.05c.332-.08.515-.263.548-.547V1.964c-.044-.278-.227-.457-.548-.535l-.2-.05h-.945M36.66 12.854v-.5h.906l.252-.052c.392-.08.588-.307.588-.682V1.964c-.035-.278-.22-.457-.554-.535l-.26-.05h-.933V.827h5.276l2.313 7.77L46.79.83h4.983v.55h-.898l-.266.05c-.345.08-.533.258-.567.536v9.792c.034.284.224.466.57.546l.203.05h.957v.502H45.78v-.5h.915l.254-.05c.36-.09.542-.274.542-.553v-.216l.004-9.78-3.48 11.1h-1.41L39.128 1.647V11.75c.034.29.22.475.56.553l.203.05h.967v.5H36.66M52.274 1.33V.827h5.837v.5h-.765l-.213.05c-.274.08-.43.263-.468.554V9.46c0 .847.182 1.447.44 1.873.113.187.465.35.81.467.333.113.54.124.893.126.158 0 .248-.004.406-.022.24-.026.38-.042.61-.12.457-.156.715-.266 1.023-.696.308-.43.446-.904.446-1.796V2.15l.218-.085-.218-.133c-.03-.2-.082-.335-.16-.402-.076-.067-.173-.117-.288-.15l-.16-.05h-.825V.827h3.75v.5h-.773l-.23.05c-.296.08-.458.263-.487.552v7.283c0 1.202-.218 2.088-.653 2.655-.435.568-.975.905-1.618 1.01-.645.107-2.197.16-2.48.16h-.34c-.105-.023-.444-.067-1.016-.134-.573-.067-1.1-.368-1.583-.903-.48-.535-.723-1.315-.723-2.34V1.914c-.028-.268-.18-.452-.454-.552l-.17-.034h-.81M64.054 12.854v-.5h.917l.256-.05c.34-.08.532-.263.577-.553V2.098c-.045-.367-.238-.59-.577-.668l-.187-.05h-.986V.827h4.225l5.198 8.638V1.964c-.045-.278-.234-.457-.566-.535l-.205-.05h-.978V.827h4.177v.55h-.934l-.238.05c-.362.09-.543.27-.543.536v10.89h-1.94l-5.72-9.225v8.12c0 .276.19.46.567.55l.222.053h.977v.5h-4.246M76.143 12.854v-.5h.963l.267-.05c.357-.08.553-.263.59-.553V1.934c-.05-.28-.24-.464-.572-.554h-1.23V.827h6.056c1.46 0 2.68.334 3.663 1.002.98.668 1.63 1.47 1.94 2.405.312.936.468 1.793.468 2.573 0 1.68-.476 3.053-1.43 4.117-.953 1.063-2.212 1.69-3.777 1.88l-.794.05h-6.143zm4.587-1.267c0 .3.05.502.15.608.1.105.285.158.556.158h.833c1.105 0 1.733-.392 2.34-1.174.605-.784.908-2.024.908-3.723V6.242c0-.356-.02-.72-.062-1.09-.04-.373-.144-.864-.31-1.475-.163-.61-.425-1.107-.784-1.49-.36-.383-.664-.55-1.174-.716-.274-.09-.513-.14-.725-.14h-1.045c-.27 0-.453.044-.547.132-.093.09-.14.272-.14.55v9.575zM89.185 6.84v-.458c0-.128.065-.67.195-1.63.13-.956.66-1.88 1.593-2.77.932-.892 2.097-1.338 3.494-1.338 1.387 0 2.547.446 3.48 1.337.93.89 1.46 1.832 1.59 2.823.13.99.2 1.545.204 1.662.007.117.01.242.01.376 0 .135-.003.263-.01.385-.004.123-.072.677-.202 1.662-.13.985-.655 1.924-1.576 2.814-.92.892-2.086 1.337-3.495 1.337-1.397 0-2.562-.445-3.494-1.336-.932-.89-1.457-1.777-1.577-2.663-.12-.885-.184-1.43-.195-1.637-.01-.205-.015-.392-.015-.56zm2.907.092v.838c0 .405.004.676.013.813.008.137.068.58.18 1.33.11.75.345 1.354.7 1.808.356.456.843.683 1.46.683.6 0 1.082-.23 1.447-.69.364-.46.593-1 .688-1.618.094-.62.152-1.068.173-1.348.022-.28.032-.605.032-.977V6.094c0-.47-.006-.794-.02-.97-.012-.174-.063-.552-.153-1.133-.09-.58-.257-1.088-.502-1.527-.244-.438-.533-.717-.868-.837-.334-.12-.478-.177-.726-.177-1.132 0-1.93.553-2.103 1.67-.17 1.118-.268 1.786-.29 2.005-.02.22-.03.542-.03.97v.837z"/></g></svg>