<svg width="94" height="12" viewBox="0 0 94 12" xmlns="http://www.w3.org/2000/svg"><title>Group Copy 4</title><g fill="#B1986A" fill-rule="evenodd"><path d="M56.504 9.104h-3.6L52.04 12h-1.922L53.73.706h1.95L59.294 12H57.37l-.866-2.896zm-1.807-6.44s-.23 1.113-.433 1.748l-.91 3.02h2.687l-.91-3.02c-.19-.637-.404-1.75-.404-1.75h-.03zM63.53.707h3.305c1.11 0 1.616.094 2.062.32 1.026.506 1.675 1.59 1.675 3.084 0 1.353-.65 2.607-1.733 3.088v.032s.143.158.347.558L71.294 12h-2.078L67.18 7.787h-1.79V12h-1.86V.705zm3.535 5.295c.995 0 1.615-.652 1.615-1.78 0-1.08-.417-1.75-1.875-1.75H65.39v3.532l1.675-.002zM74.824.706H78.5c3.328 0 5.5 2.068 5.5 5.63C84 9.904 81.83 12 78.5 12h-3.676V.706zm3.57 9.53c2.19 0 3.584-1.353 3.584-3.9 0-2.51-1.43-3.865-3.583-3.865h-1.612v7.765h1.612zM87.858 8.826s1.135 1.226 2.61 1.226c.795 0 1.518-.456 1.518-1.404 0-2.08-4.94-1.72-4.94-5.28 0-1.93 1.504-3.368 3.51-3.368 2.064 0 3.124 1.242 3.124 1.242l-.826 1.717s-1.005-1.013-2.317-1.013c-.88 0-1.577.572-1.577 1.39 0 2.06 4.922 1.552 4.922 5.264 0 1.848-1.266 3.4-3.448 3.4-2.328 0-3.61-1.584-3.61-1.584l1.034-1.59zM34.634.708l-1.82 7.813c-.14.637-.186 1.192-.186 1.192h-.032c-.016 0-.032-.54-.202-1.19L30.434.707h-1.74L26.7 8.52c-.17.65-.186 1.192-.202 1.192h-.03s-.05-.556-.187-1.19L24.98 2.67 24 6.935 25.24 12h2.317l1.696-6.68c.186-.73.28-1.478.28-1.478h.03s.093.747.28 1.48L31.542 12h2.317L36.707.706l-2.073.002zM47.342.706l-1.82 7.813c-.14.635-.185 1.19-.185 1.19h-.033c-.014 0-.03-.54-.2-1.19L43.144.705h-1.74l-1.99 7.813c-.17.648-.185 1.19-.2 1.19h-.033s-.045-.556-.185-1.19l-1.31-5.878-.98 4.265L37.956 12h2.314l1.693-6.68c.186-.732.28-1.48.28-1.48h.03s.095.748.28 1.48L44.25 12h2.315L49.412.706h-2.07zM6.388 9.104h-3.6L1.924 12H0L3.613.706h1.95L9.177 12H7.254l-.866-2.896zM4.58 2.662s-.23 1.114-.432 1.75l-.91 3.02h2.687l-.912-3.02c-.187-.637-.404-1.75-.404-1.75h-.03z" id="Shape"/><path d="M20.433 8.52c.17.65.184 1.192.2 1.192h.03s.048-.56.185-1.193L22.653.705h2.053L21.88 12h-2.296l-1.68-6.68c-.186-.732-.28-1.48-.28-1.48h-.03s-.092.748-.28 1.48L15.635 12h-2.3L10.588.708h2.053l1.73 7.813c.138.637.184 1.192.184 1.192h.03c.018 0 .03-.54.202-1.19L16.76.707h1.726l1.947 7.81z"/></g></svg>