<svg width="78" height="23" viewBox="0 0 78 23" xmlns="http://www.w3.org/2000/svg"><title>Group Copy 2</title><g fill="#B1986A" fill-rule="evenodd"><path d="M6.785 1.724c1.09 0 1.996.907 1.996 1.996 0 1.09-.906 1.996-1.995 1.996-1.09 0-1.995-.907-1.995-1.996 0-1.09.906-1.996 1.995-1.996M2.957 1.098c.133.008.235.12.235.256V19.03c0 .14-.11.257-.25.257H.25c-.138 0-.25-.116-.25-.258V1.182C0 1.028.135.91.282.928l2.675.17M5.067 5.718l2.684.178c.132.007.232.124.232.262v12.865c0 .145-.11.264-.245.264H5.035c-.135 0-.245-.12-.245-.264V5.98c0-.146.11-.264.245-.264.01 0 .022 0 .032.002M9.58 4.45c0-1.27.573-2.524 1.507-3.35.982-.87 2.31-1.176 3.562-.838l.33.09c.12.032.196.148.186.27l-.098 2.753c-.004.138-.116.248-.25.248h-1.266c-.537 0-.76.472-.76.968v3.392h1.814c.14 0 .252.116.252.26v2.832c0 .143-.113.26-.252.26H12.79v9.93c0 .143-.112.258-.25.258l-2.695.16c-.143.007-.265-.112-.265-.258V4.45M15.966 9.892c0-.527.107-1.09.322-1.626.633-1.58 2.063-2.55 3.73-2.55 1.553 0 2.92.895 3.58 2.328.234.507.35 1.024.35 1.46v3.028c0 .507-.19.914-.496 1.202-.322.3-.77.463-1.262.463h-3.015v.765c0 .514.298.985.84.985h2.572c.142 0 .257.124.25.27l.075 2.377c.004.13-.09.242-.214.26l-2.674.4c-.14.02-.28.033-.422.033-.894 0-1.738-.424-2.368-1.055-.798-.8-1.268-1.93-1.268-3.07V9.89zm4.005-.865c-.43 0-.795.373-.795.813v1.04h1.593V9.84c0-.44-.366-.813-.797-.813zM27.954 6.302c.51-.113 1.035-.17 1.558-.17 1.167 0 2.228.415 3.008 1.25.712.764 1.008 1.786 1.008 2.792v8.854c0 .143-.122.26-.272.26H31.39c-.15 0-.27-.117-.27-.26v-8.892c0-.967-.697-1.502-1.676-1.502h-1.49v10.392c0 .143-.122.26-.27.26l-1.867-.002c-.15 0-.27-.116-.27-.258l-.002-17.84c0-.144.122-.26.272-.26h1.866c.15 0 .27.116.27.26V6.3M55.71 19.028c0 .143-.11.26-.25.26l-1.724-.003c-.138 0-.25-.115-.25-.257V1.185c0-.143.11-.26.25-.26h1.724c.14 0 .25.117.25.26v10.41l3.014-5.15c.047-.08.13-.125.215-.126h2.01c.203 0 .323.217.208.403l-3.255 5.672 3.533 6.504c.094.173-.034.384-.22.384h-1.94c-.102 0-.19-.062-.23-.15l-3.335-5.985v5.878M77.255 6.086c.117.042.187.154.178.27l-.067 1.512c-.006.143-.126.254-.27.254h-1.774c-.143 0-.288.002-.43.024-.42.066-.777.28-1.03.586-.26.31-.41.72-.41 1.163v9.125c0 .147-.122.267-.272.267h-1.862c-.15 0-.27-.12-.27-.267V9.814c0-.967.34-1.883.92-2.605 1.328-1.643 3.432-1.788 5.287-1.124M68.682 16.94c.144 0 .26.107.27.244l.1 1.436c.01.138-.092.258-.23.278l-2.47.35c-.172.025-.346.04-.52.04-.93 0-1.792-.382-2.43-1.033-.733-.75-1.136-1.793-1.136-2.823v-5.94c0-1.988 1.83-3.776 3.878-3.776 2.168 0 4.105 1.626 4.105 3.792v2.942c0 .733-.538 1.243-1.29 1.243l-4.288-.002v1.37c0 .562.152 1.06.458 1.4.27.3.67.482 1.202.482l2.35-.003zM66.258 8.11c-.86 0-1.586.705-1.586 1.54v1.685h3.17V9.653c0-.83-.73-1.54-1.584-1.54zM47.886 5.716c2.05 0 3.978 1.656 3.98 3.694v.435c0 .143-.118.26-.264.262l-1.883.047c-.15.003-.273-.11-.277-.255l-.014-.447c-.025-.763-.787-1.347-1.544-1.347-.852 0-1.578.705-1.578 1.532v5.712c0 .873.697 1.56 1.6 1.56.578 0 1.404-.446 1.482-1.057l.054-.415c.018-.144.153-.246.3-.23l1.888.1c.148.007.264.13.256.275-.01.163-.046.335-.068.5-.25 1.82-2.08 3.204-3.934 3.204-2.14 0-3.98-1.697-3.98-3.794V9.58c0-2.13 1.785-3.864 3.98-3.864M37.91 5.807c1.528-.28 3.106.073 4.16 1.26.65.73 1.024 1.695 1.026 2.73l.01 5.494c.006 2.213-1.58 3.926-3.854 3.995-2.144.065-4.128-1.657-4.128-3.782V14.24c0-1.147.418-2.086 1.123-2.746.724-.678 1.746-1.056 2.925-1.056.51 0 1.02.045 1.525.123l-.002-1.183c0-.383-.11-.782-.402-1.053-.304-.282-.73-.362-1.134-.337l-2.54.16c-.15.01-.278-.1-.287-.247l-.08-1.413c-.006-.12.068-.224.177-.263-.02-.06 1.368-.397 1.48-.417zm2.79 6.684h-1.403c-.55 0-.988.176-1.286.478-.31.314-.48.77-.48 1.318 0 .303-.01.608.002.91.033.877.594 1.73 1.574 1.73h.065c.88-.033 1.534-.714 1.534-1.566l-.003-2.87z"/><path d="M3.193 1.102v18.185H0V.927c1.064.057 2.13.116 3.193.175M4.79 5.716l3.193.175V18.49H4.79V5.716M9.58 5.092c0-1.223.593-2.435 1.56-3.233 1.023-.845 2.372-1.128 3.664-.802l.363.09-.108 2.833h-1.392c-.762 0-1.113.59-1.113 1.256v3.74h2.27v2.902h-2.27v10.438l-2.976.164V5.092M15.966 9.79c0-.996.4-2.12 1.208-2.934.674-.677 1.623-1.14 2.85-1.14 1.137 0 2.028.428 2.672 1.025.837.778 1.252 1.854 1.252 2.648v3.145c0 .928-.723 1.464-1.61 1.464h-3.484v1.062c0 .68.428 1.288 1.165 1.288h2.743l.08 2.493-2.854.417c-.14.02-.278.03-.412.03-.863 0-1.693-.39-2.34-1.02-.802-.782-1.272-1.886-1.272-3V9.79zm4.006-1.166c-.61 0-1.118.505-1.118 1.11v1.348h2.236V9.735c0-.606-.508-1.11-1.118-1.11zM28.145 6.293c.57-.163 1.174-.243 1.767-.243 1.073 0 1.99.36 2.71 1.144.647.708.906 1.648.906 2.58v8.714h-1.802V9.736c0-.487-.163-.953-.508-1.274-.3-.28-.752-.458-1.372-.458h-1.7v10.483h-1.803V.927h1.802v5.366M55.325 18.488h-1.84V.926h1.84v17.562zm3.712-12.254h2.145l-3.56 5.723 3.846 6.53h-2.072l-3.693-6.11c-.27-.45-.254-.484.027-.928l3.307-5.216zM74.76 6.597c.932-.195 1.814-.025 2.673.29-.02.495-.043.99-.064 1.485h-1.697c-.15 0-.3.002-.45.026-.94.15-1.598.98-1.598 1.968v8.92h-1.78v-9c0-1.758 1.196-3.328 2.914-3.69M65.93 17.507l2.27-.004.096 1.406-2.384.342c-.16.023-.316.035-.465.035-.878 0-1.613-.367-2.156-.93-.66-.686-1.024-1.645-1.024-2.587V9.953c0-1.806 1.647-3.44 3.482-3.44 1.954 0 3.703 1.454 3.703 3.456v2.88c0 .59-.388.96-.982.96l-4.403-.003v1.6c0 1.164.613 2.1 1.865 2.1zm-.072-9.162c-.98 0-1.793.8-1.793 1.766v1.908h3.586V10.11c0-.96-.817-1.765-1.792-1.765zM48.285 6.514c1.84 0 3.58 1.502 3.582 3.36v.426l-1.818.046-.014-.437c-.028-.89-.877-1.57-1.75-1.57-.97 0-1.786.8-1.786 1.756v5.593c0 1.006.783 1.783 1.806 1.783.68 0 1.6-.54 1.69-1.26l.053-.406 1.838.097-.063.47c-.225 1.654-1.883 2.913-3.54 2.913v-.002c-1.937 0-3.58-1.527-3.58-3.455v-5.79c0-1.96 1.588-3.526 3.58-3.526M36.213 7.002c.917-.334 1.84-.574 2.83-.458 1.948.228 3.25 1.843 3.255 3.712l.01 5.582c0 1.96-1.726 3.495-3.667 3.447-1.848-.047-3.516-1.567-3.516-3.444v-1.236c0-2.13 1.538-3.46 3.646-3.46.582 0 1.163.06 1.734.168L40.5 9.845c0-1.02-.66-1.688-1.76-1.62l-2.45.158c-.026-.46-.05-.92-.077-1.38zm4.294 5.632H38.89c-1.228 0-1.966.826-1.966 2.016v.807c0 1.063.674 2.078 1.854 2.035.986-.037 1.733-.807 1.733-1.79l-.003-3.068z"/><path d="M.798 1.724l1.597.116v16.648H.798V1.724M5.588 6.514l1.597.118v11.856H5.588V6.514M10.378 4.524c0-2.065 1.752-4.115 3.99-3.48l-.066 1.97h-.808c-.688 0-1.364.502-1.364 1.65v4.053h1.956v1.935H12.13v10.123l-1.752.108V4.523M16.764 9.937c0-1.532 1.203-3.423 3.66-3.423 2.36 0 3.524 1.89 3.524 3.043v2.974c0 .563-.393.956-1.17.956H18.77v1.434c0 1.155.935 1.65 1.65 1.65h2.34l.054 1.558-2.492.337c-1.786.24-3.558-1.41-3.558-3.35V9.938zm3.607-1.532c.882 0 1.603.666 1.603 1.48v1.704H18.77V9.885c0-.815.72-1.48 1.6-1.48zM27.264 7.305c.638-.296 1.523-.435 2.248-.435 1.002 0 1.754.29 2.412 1 .5.54.806 1.305.806 2.303v8.315h-.92v-8.352c0-1.122-.732-2.177-2.365-2.177h-2.18v10.528h-.922V1.724h.92v5.58M59.352 7.05h1.027l-3.113 5.308 3.402 6.13h-.973l-3.312-5.816c-.19-.333-.176-.364.02-.693l2.947-4.93zM55.16 18.488h-.877V1.724h.876v16.764zM76.635 6.756c-1.312-.464-2.917-.295-3.895.806-.497.556-.895 1.282-.895 2.308v8.618h.915V9.95c0-1.133.816-2.455 2.398-2.455h1.445l.032-.74M67.413 17.58h-1.91c-1.202 0-2.318-.832-2.318-2.556v-2.05h4.924c.352 0 .542-.147.542-.524v-2.9c0-1.222-.99-3.036-3.304-3.036-1.616 0-3.082 1.445-3.082 3.02v5.857c0 1.638 1.255 3.344 3.183 3.07l2.004-.288-.04-.593zM65.46 7.47c1.244 0 2.273 1.006 2.273 2.223v2.363h-4.548V9.693c0-1.222 1.023-2.223 2.274-2.223zM47.896 6.514c1.593 0 3.193 1.276 3.194 2.94l-.96.024c-.034-1.14-1.107-2.01-2.234-2.01-1.244 0-2.27 1-2.27 2.21v5.63c0 1.217.937 2.24 2.292 2.24 1.038 0 2.065-.826 2.172-1.658l.96.05c-.178 1.306-1.54 2.548-3.154 2.548-1.748 0-3.192-1.337-3.192-3.037V9.62c0-1.783 1.436-3.106 3.192-3.106M37.044 6.865l.035.615 2.03-.13c1.446-.09 2.267.89 2.27 2.074l.003 2.028c-.703-.163-1.403-.276-2.214-.276-1.884 0-3.247 1.053-3.247 3.04v1.247c0 1.666 1.51 3.025 3.2 3.025 1.744 0 3.19-1.316 3.186-3.028l-.012-5.62c-.002-1.016-.393-1.89-1.06-2.488-1.173-1.05-2.797-.99-4.194-.487zm4.34 4.924l.006 3.528c.002 1.223-.937 2.252-2.29 2.252-1.036 0-2.258-.752-2.258-2.494v-.812c0-1.55 1-2.475 2.45-2.475h2.09z"/></g></svg>