<svg width="57" height="19" viewBox="0 0 57 19" xmlns="http://www.w3.org/2000/svg"><title>ABC 2</title><path d="M12.24 10.31L9.407 2.9l-3.01 7.41h5.84zM.75 17.506H2.2L8.835 1.17h-1.45V.346h4.766l6.662 17.16h1.442v.822h-4.91l-2.596-6.78H5.892L3.14 18.33H.75v-.823zm31.953-8.31c-1.69.658-3.543.724-5.896.13v8.182h4.113c1.33 0 2.435-.873 2.833-2.06.442-1.317.387-3.226.162-4.212-.226-.994-.786-1.672-1.212-2.04zm-2.68-8.008h-3.216v7.23c.51.16 2.075.585 3.472.33 1.646-.3 2.623-1.224 2.613-3.827-.01-2.695-1.868-3.734-2.87-3.734zM21.87 17.506h1.402V1.17H21.87V.346h9.887c2.532 0 4.52 2.03 4.586 4.532.034 1.313-.353 2.313-1.835 3.43 1.81.993 3.154 2.79 3.154 4.907 0 2.697-2.193 5.112-5.138 5.112H21.87v-.823zM40.092 9.59c0-5.124 4.14-9.28 9.244-9.28 2.32 0 4.438.858 6.06 2.274l-.053-.716 1.198-.083.306 4.077-1.198.083-.093-1.23c-.077-1.016-2.65-3.114-5.315-3.114-3.87 0-7.006 3.578-7.006 7.99 0 4.414 3.137 7.99 7.006 7.99 2.343 0 4.417-1.31 5.69-3.325l.916.745c-1.677 2.344-4.417 3.87-7.51 3.87-5.106 0-9.245-4.154-9.245-9.28z" fill="#B1986A" fill-rule="evenodd"/></svg>