<svg width="46" height="22" viewBox="0 0 46 22" xmlns="http://www.w3.org/2000/svg"><title>Fill 1 + Fill 2 Copy</title><g fill="#B1986A" fill-rule="evenodd"><path d="M14.45.824c0-.01-3.926 0-3.926 0C4.712.824 0 5.562 0 11.407 0 17.25 4.712 21.99 10.524 21.99l7.383-.007c1.855 0 3.36-1.5 3.36-3.365l.002-6.455 5.102 8.094c.69 1.05 1.875 1.743 3.22 1.743 2.13 0 3.858-1.737 3.858-3.88v-5.957l5.102 8.094c.69 1.05 1.875 1.743 3.22 1.743 2.13 0 3.858-1.737 3.858-3.88L45.628.816h-2.625V18.12c0 .685-.55 1.24-1.23 1.24-.425 0-.8-.218-1.02-.547L31.668 4.427c-.085-.123-.225-.203-.384-.203-.257 0-.466.21-.466.468l.003 13.43c0 .683-.55 1.237-1.23 1.237-.425 0-.8-.218-1.02-.547L19.49 4.427c-.084-.123-.225-.203-.384-.203-.257 0-.465.21-.465.468v13.926c0 .406-.33.735-.733.735l-7.383-.005c-4.36 0-7.897-3.556-7.897-7.94 0-4.387 3.536-7.942 7.897-7.942l3.927-.003V.823"/><path d="M14.818 16.073c.208 0 .377-.17.377-.38V4.724c0-2.158 1.74-3.908 3.884-3.908 1.36 0 2.555.703 3.25 1.768l5.118 8.082.01-5.942c0-2.158 1.738-3.908 3.882-3.908 1.36 0 2.556.703 3.25 1.768l5.12 8.082V.815h2.66l-.004 17.44c0 .26-.21.47-.47.47-.152 0-.29-.073-.374-.187L32.367 4.026c-.222-.332-.6-.55-1.027-.55-.684 0-1.238.56-1.238 1.247l.003 13.532c0 .26-.21.47-.47.47-.152 0-.29-.073-.374-.187L20.107 4.026c-.223-.332-.6-.55-1.027-.55-.685 0-1.24.56-1.24 1.247l.006 13.64c0 .208-.17.378-.376.378h-7.03c-3.966 0-7.18-3.26-7.18-7.25 0-3.992 3.214-7.252 7.18-7.252 0 0 3.952-.015 3.952 0v2.69l-3.953-.004c-2.506 0-4.536 2.044-4.536 4.565 0 2.52 2.03 4.588 4.535 4.588l4.378-.005"/></g></svg>