<?xml version="1.0" encoding="UTF-8" standalone="no"?>
<svg width="86px" height="14px" viewBox="0 0 86 14" version="1.1" xmlns="http://www.w3.org/2000/svg" xmlns:xlink="http://www.w3.org/1999/xlink" xmlns:sketch="http://www.bohemiancoding.com/sketch/ns">
    <!-- Generator: Sketch 3.3.2 (12043) - http://www.bohemiancoding.com/sketch -->
    <title>Group Copy 3</title>
    <desc>Created with Sketch.</desc>
    <defs></defs>
    <g id="Home" stroke="none" stroke-width="1" fill="none" fill-rule="evenodd" sketch:type="MSPage">
        <g id="Artboard-Copy-6" sketch:type="MSArtboardGroup" transform="translate(-48.000000, -2201.000000)" fill="#B1986A">
            <g id="Group-Copy-3" sketch:type="MSLayerGroup" transform="translate(48.500000, 2201.364286)">
                <path d="M17.2479157,0.146146355 C18.8892367,-0.164870343 20.7007898,-0.0100531423 22.120809,0.907791692 C23.3209452,1.61414517 24.0841524,2.85821196 24.4600816,4.14789454 C24.9537546,5.86608901 24.8303364,7.75983513 24.0699664,9.38679803 C23.2415036,11.1284915 21.4313691,12.4154095 19.456677,12.5646975 C18.7473766,12.5743736 18.0338205,12.6075487 17.3287759,12.5329047 C15.6207807,12.2619746 14.0730874,11.135403 13.3226476,9.61487695 C12.8360676,8.70947278 12.6658355,7.68242653 12.582138,6.67473243 C12.546673,4.88880543 13.0587879,3.01579376 14.3553889,1.70122985 C15.1483867,0.938202213 16.1470816,0.356255413 17.2479157,0.146146355 Z M17.6635657,1.73025807 C18.6580048,1.46347486 19.7971411,1.59341072 20.6355341,2.20438575 C21.6186244,2.90244545 22.1477625,4.06495675 22.3406922,5.20811591 C22.4740406,6.43974203 22.4612732,7.75430594 21.8569493,8.87673065 C21.3632763,9.82360371 20.5305577,10.7013619 19.4297235,10.9363523 C18.4125869,11.1796365 17.2564273,10.9778212 16.4719411,10.2728501 C14.7057833,8.73573641 14.4887374,6.05822822 15.2845723,3.99307734 C15.7087339,2.96741338 16.5414526,2.03436329 17.6635657,1.73025807 Z" id="Shape" sketch:type="MSShapeGroup"></path>
                <path d="M28.308322,2.08941444 C29.4732363,0.782443462 31.2419173,0.0521993587 33.0063364,0.00517606419 C34.196822,-0.0266338115 35.4384503,0.0784770821 36.5238095,0.592967246 C36.4201037,1.12958602 36.2723585,1.66067264 36.0280106,2.15441723 C34.9142388,1.73397366 33.6967612,1.46843035 32.5076962,1.71876024 C30.9592125,1.98015443 29.6252435,3.17095021 29.2260472,4.65080095 C28.788494,5.97298535 28.8822554,7.45421913 29.4888632,8.71140074 C30.0315429,9.83027854 31.1524178,10.6421219 32.3926254,10.8786214 C33.6541424,11.1815067 34.9469132,10.827449 36.1516052,10.4581778 C36.3050329,10.9795832 36.4201037,11.5106698 36.4854526,12.0500546 C35.9413523,12.207721 35.3986727,12.3819838 34.8361043,12.4746473 C34.0476562,12.6364628 33.2378986,12.5617787 32.4395061,12.57146 C30.8555067,12.6101851 29.2786104,11.918666 28.2500763,10.7472328 C27.1206776,9.48175295 26.6987513,7.75433839 26.7981952,6.10852308 C26.8024571,4.65080095 27.3437161,3.20414313 28.308322,2.08941444 L28.308322,2.08941444 Z" id="Shape" sketch:type="MSShapeGroup"></path>
                <path d="M40.2365514,1.37367612 C41.4973512,0.227546884 43.3281405,-0.188475988 45.0111021,0.0773929335 C46.2448948,0.220659088 47.3720811,0.946632774 48.0600485,1.93985294 C48.4466748,2.47572346 48.6812092,3.09562509 48.8759438,3.71690428 C49.1787063,4.67017523 49.0976853,5.67854855 49.0848925,6.66074824 C46.1553454,6.84396361 43.2158483,6.57258445 40.2863011,6.70069746 C40.2194943,7.64983573 40.5037784,8.6292803 41.0481823,9.41862171 C41.9052988,10.577149 43.4375898,11.0785805 44.8646958,11.008325 C45.9819321,11.0344986 47.0479973,10.6969966 48.1240124,10.4696994 C48.2135619,10.9422022 48.3329612,11.4078172 48.3926609,11.8858302 C46.9854548,12.5250177 45.4005712,12.6159366 43.8697016,12.5704771 C42.2094827,12.6062936 40.5364711,11.9023609 39.5016771,10.6336289 C38.3844408,9.26020241 38.0035001,7.42942626 38.1939705,5.71574265 C38.3304268,4.10399841 38.987123,2.47985614 40.2365514,1.37367612 Z M41.5300438,2.48674393 C42.6899228,1.22627729 45.0608518,1.17393004 46.1596096,2.53771362 C46.7622918,3.25542195 46.9854548,4.20731535 46.9541836,5.11788196 C44.7495607,5.12476976 42.5463593,5.12614732 40.3417365,5.11512684 C40.4611358,4.15221298 40.8363907,3.20031959 41.5300438,2.48674393 Z" id="Shape" sketch:type="MSShapeGroup"></path>
                <path d="M54.9477684,0.826892994 C55.9752725,0.103491264 57.2951444,-0.133436821 58.525057,0.0698446724 C59.9461332,0.250695105 61.1591784,1.32037634 61.645521,2.64380896 C62.2274453,4.18033667 62.0461211,5.85846045 62.0812614,7.4678891 C62.0489323,9.1502187 62.1487309,10.8381561 62.0320649,12.5176818 C61.3362858,12.6017983 60.632073,12.5989944 59.9362939,12.5232896 C59.8350896,9.95633497 59.9461332,7.38517456 59.8800693,4.81681804 C59.8379009,3.75975427 59.3838874,2.63539732 58.4365033,2.07742467 C57.8095993,1.6680578 57.0168328,1.74376263 56.3069975,1.79843834 C54.7706609,2.13911008 53.7248838,3.68685332 53.7080165,5.21216549 C53.6883379,7.66275895 53.7305063,10.1133524 53.6883379,12.5625439 C52.9925587,12.5737594 52.2967796,12.5807692 51.6024061,12.5583381 C51.5475871,8.46466939 51.6473857,4.36959875 51.5391534,0.275930049 C52.1590294,0.261910635 52.7831222,0.210038806 53.3987813,0.309576641 C53.4170543,0.933440535 53.4789013,1.55590249 53.5365315,2.17836444 C54.0622313,1.78441893 54.3799001,1.1731725 54.9477684,0.826892994 L54.9477684,0.826892994 Z" id="Shape" sketch:type="MSShapeGroup"></path>
                <path d="M77.5954575,0.132556859 C79.0980514,-0.138396224 80.7427638,-0.0264207151 82.077023,0.772614397 C83.6610246,1.70021398 84.6655134,3.46970351 84.7841756,5.28895992 C84.8517854,6.56078052 84.8586843,7.88651524 84.3343633,9.0740086 C83.6679236,10.8172323 82.0659847,12.1498791 80.2405194,12.5065418 C79.6665258,12.6060756 79.0828736,12.5701328 78.5033609,12.5756625 C76.5895889,12.6655194 74.7530853,11.4738788 73.8617395,9.80668786 C73.2146169,8.69522725 73.0007491,7.38469907 73.0559408,6.11287848 C73.0587003,4.40006792 73.7182411,2.65684426 74.9931692,1.49146952 C75.7299783,0.834823013 76.6240837,0.33162443 77.5954575,0.132556859 Z M78.270176,1.67256571 C79.3298565,1.46105641 80.4930214,1.75136329 81.2629455,2.52827978 C81.9735386,3.27893042 82.3874763,4.2770331 82.5433928,5.29172475 C82.6758529,6.55525086 82.5972047,7.89619214 81.977678,9.03253619 C81.4105833,10.1122013 80.3260665,11.0176823 79.0621768,11.0287416 C78.2287822,11.0854205 77.366412,10.8047905 76.7648225,10.2158823 C75.6761664,9.28413548 75.2373924,7.78836387 75.2525701,6.39350846 C75.2249743,5.29863682 75.459539,4.17335207 76.0542295,3.24437007 C76.5550941,2.46745358 77.3346768,1.81495432 78.270176,1.67256571 Z" id="Shape" sketch:type="MSShapeGroup"></path>
                <path d="M-1.95399252e-14,0.423493262 C0.76093116,0.405485012 1.52186232,0.390247263 2.28003648,0.435960512 C3.15676152,3.16767348 4.18374288,5.8481322 5.0783884,8.57430416 C5.27137818,9.17273216 5.38441506,9.80994715 5.72352569,10.3515799 C6.73396507,7.56445693 7.64928806,4.73993221 8.64042847,1.94449774 C8.81549777,1.425029 8.9740251,0.900019257 9.21801933,0.408255512 C9.93346004,0.417952262 10.6475223,0.405485012 11.362963,0.411026012 C9.8755631,4.31743097 8.31923832,8.19890142 6.81667498,12.0997654 C6.75050705,12.2632249 6.66779714,12.4239139 6.53821829,12.5472011 C5.89721649,12.6081521 5.25070071,12.5652094 4.60832042,12.5721356 C3.03407515,8.53828767 1.52186232,4.47811996 -1.95399252e-14,0.423493262 L-1.95399252e-14,0.423493262 Z" id="Shape" sketch:type="MSShapeGroup"></path>
                <path d="M63.3106289,0.414402447 C66.1319749,0.397463615 68.9547524,0.411579309 71.7775298,0.407344601 C71.8476699,0.947975657 71.844807,1.49425299 71.7861184,2.03488405 C70.6853497,2.08852368 69.584581,2.03629562 68.4838123,2.06311543 C68.4279866,3.59890287 68.4709295,5.13610188 68.4566152,6.67330089 C68.4766552,7.87172326 68.3521209,9.10120015 68.7128409,10.2643333 C68.8688667,10.7456784 69.2825496,11.1945575 69.8150411,11.2510203 C70.4019268,11.307483 70.9931069,11.2566665 71.5828555,11.2467855 C71.634387,11.7733009 71.6458384,12.3026394 71.6028955,12.8305663 C70.8213355,13.0211282 70.0125782,12.9844274 69.2152724,12.9816043 C68.2862752,12.9886621 67.3114722,12.5115517 66.8963579,11.6688448 C66.4497521,10.8303726 66.3896321,9.86203603 66.3323749,8.93604654 C66.3166292,6.6408348 66.3409635,4.34562305 66.3194921,2.05041131 C65.3217863,2.00806423 64.2997461,2.17886412 63.3192175,1.9544246 C63.3120603,1.44061336 63.3034717,0.926802117 63.3106289,0.414402447 L63.3106289,0.414402447 Z" id="Shape" sketch:type="MSShapeGroup"></path>
            </g>
        </g>
    </g>
</svg>